<?xml version="1.0" encoding="UTF-8"?>
<svg id="Capa_1" data-name="Capa 1" xmlns="http://www.w3.org/2000/svg" viewBox="0 0 125.01 77.63">
  <defs>
    <style>
      .cls-1 {
        fill: #221f1f;
      }
    </style>
  </defs>
  <path class="cls-1" d="M56.46,56.57c.32-.69-.03-1.51-.71-1.83h.02s-.9-.66-1.35-5.67c-.29-3.23-.35-7.18-.37-10.35,0-2.44-.03-4.53-.16-5.75,0-.06,0-.13-.02-.18-.16-.66-.79-1.14-1.51-1.06-.77.08-1.32.77-1.24,1.54.13,1.08.13,3.12.16,5.48.08,10.41.5,16.13,2.6,18.03.27.24.53.42.85.53.69.29,1.43-.05,1.75-.74ZM44.73,39.2c-.16,0-.31,0-.48.05-1.25.29-1.99,1.72-2.62,3.18-1.09,2.38-1.56,5.43-1.75,8.58-2.45-.2-5.64-2.45-7.2-3.65.74-.8,1.59-1.64,2.41-2.22.64-.45.79-1.32.34-1.93-.45-.64-1.3-.8-1.93-.34-.69.48-1.8,1.65-3.05,3.05-.42-.24-.85-.48-1.27-.74-1.37-.82-2.78-1.64-4.13-2.38-.66-.38-1.51-.13-1.88.53-.11.19-.16.4-.19.59v.18c.03.48.29.9.72,1.14,1.32.71,2.65,1.51,4.05,2.35.26.16.53.32.82.48-1.98,2.28-3.54,4.02-5.59,4.94-1.79.81-4.21,1.04-5.68.31-1.45-.72-2.63-1.75-3.5-3.54.34-.05.66-.16,1.01-.27,1.45-.55,2.73-1.56,3.89-3.34.96-1.46,1.43-2.91,1.43-4.11,0-.82-.21-1.53-.66-2.07-.66-.82-1.99-1.59-4.66-.66-.08.03-.17.05-.24.11-2.38.87-3.82,3.04-4.08,6.09-.03.29-.03.61-.03.92,0,.24.03.5.03.74-.21,0-.45-.03-.71-.06-.77-.05-1.43.53-1.49,1.3v.1c0,.74.56,1.35,1.3,1.4.47.02.92.02,1.35.06.66,2.46,3.1,4.66,4.49,5.45,1.95,1.12,4.98,1.35,7.47.52,4.08-1.36,6.23-4.42,8-6.58,1.85,1.09,5.24,3.81,8.9,4.42-.03,2.86.14,3.13.27,5.6.1,1.64.18,3.07.18,4.13,0,.77.61,1.38,1.38,1.38s1.4-.61,1.4-1.38c0-1.14-.08-2.59-.16-4.29-.13-2.14-.27-2.15-.27-4.8v-.79c.58,0,1.14-.08,1.64-.26.98-.32,1.83-.93,2.54-1.8,1.91-2.39,2.38-6.6,1.06-9.35-.74-1.59-1.67-3.07-3.13-3.04ZM13.25,46.51c0-.27.03-.5.03-.74.11-1.11.48-2.44,1.54-3.26.21-.19.44-.35.74-.48,1.14-.43,2.04-.43,1.72.55-.11.53-.4,1.22-.93,2.07-.5.77-.98,1.32-1.53,1.72-.45.32-.94.53-1.54.66,0-.18-.03-.37-.03-.53ZM44.6,49.85c-.11.13-.21.26-.35.37-.45.4-.95.61-1.54.64.16-2.36.98-5.48,1.54-7.26.11-.29.19-.56.26-.77.16-.59,1.25-1.62,1.3,2.99,0,1.48-.43,3.04-1.22,4.03ZM77.24,41.24c-.85.47-1.57,1-2.14,1.56-.53.48-.96.98-1.31,1.48,0-.71.03-1.4.11-2.09v-.16c0-.69-.53-1.3-1.24-1.38-.77-.08-1.46.48-1.54,1.25-.45,4.08.4,8.9,1.19,12.61.16.71.83,1.19,1.54,1.11.66-.08,1.19-.61,1.25-1.27v-.42l-.03-1.14c-.02-1.22-.02-2.28.03-3.21.13-2.65.82-4.34,3.54-5.94.69-.4.9-1.25.53-1.9-.4-.66-1.24-.9-1.93-.5ZM63.26,39.39c-.54-.29-1.06-.44-1.56-.44-.35,0-1,.08-1.55.65-.22.11-.51.32-.69.68-.63,1.37-1.29,4.66-1.29,7.81,0,1.92.26,5.38,2.01,7.08.49.46,1.33,1.01,2.54,1.01h0c.16,0,.32,0,.49-.03.69-.09,1.37-.32,2.09-.72,3.72-2.02,2.97-7.34,2.66-8.93-.57-2.49-2.53-5.93-4.7-7.12ZM63.17,53.35c-.41.06-.82-.04-.99-.27-.71-.67-1.1-2.46-1.1-5.04,0-1.86.21-3.83.56-5.28.2-.16.35-.35.45-.58.06.05.12.1.18.14.27.22.54.44.84.75.74.74,1.78,2.19,2.26,6.23.11,2.83-1.05,3.95-2.19,4.06ZM116.67,42.15c-1.19-13.22-13.26-20.7-28.77-21.31-.08,0-.22,0-.33-.01.45-4.76-1.21-10.98-7.8-14.07-3.96-1.85-7.77-2.56-13.43-1.26-.06.01-.67.17-.71.39.02.06.03.11.08.14.16.14.48.11.55.12,1.36-.08,7.16-1.47,12.76,1.86,4.56,2.66,7.01,7.05,6.43,12.81-3.84.19-7.46.58-11.12,1.6-2.49.66-5.01,1.61-7.65,2.96-1.32.75-2.46,1.48-3.39,2.22-5.14,4.07-4.01,7.74-.3,9.26,2.72,1.1,6.8,1.1,10.89-.65.56-.24,1.15-.55,1.75-.87,4.31-2.3,9.57-6.23,11.56-12.46.24.01.42.03.63.03.74.02,1.48.15,2.19.2,9.6.71,22.42,5.27,23.7,18.87.21,2.24-.32,4.71-1.64,6.74,0,0,0,0,0,0-.66,1.02-1.52,1.93-2.59,2.64,0,0-.01.01-.02.02-.12.08-.24.16-.37.23-.01,0-.03.02-.04.03-.12.07-.24.14-.37.2-.02.01-.04.02-.06.03-.12.06-.24.12-.37.18-.03.01-.05.03-.08.04-.12.05-.24.1-.36.15-.04.01-.07.03-.11.05-.12.04-.24.08-.36.12-.04.01-.09.03-.13.05-.12.04-.25.07-.37.11-.05.01-.09.03-.14.04-.13.03-.26.06-.39.09-.05,0-.09.02-.14.03-.18.04-.36.07-.55.09-7.94,1.15-11.22-5.7-12.29-11.39,0-.07,0-.14-.01-.21,0,.02-.03.02-.03.02v-.29c-.13-.75-.83-1.25-1.57-1.16-.08.02-.14.04-.22.07-.2-.3-.49-.49-.88-.58-1.14-.2-2.27-.18-3.34.07-1.57.38-2.98,1.23-4.14,2.52-2.11,2.42-2.81,5.93-1.8,9.08,1.05,3.29,3.35,3,4.04,2.83.48-.12.97-.34,1.45-.67,1.57-1.04,3.18-3.07,4.41-5.24.16-.28.41-.76.69-1.36,2.88,7.63,9.67,10.65,16.31,8.76.23-.06.45-.14.66-.21.07-.02.13-.05.2-.07.15-.05.29-.11.43-.17.07-.03.14-.06.21-.09.14-.06.27-.12.4-.18.06-.03.13-.06.19-.09.16-.08.32-.16.47-.25.03-.01.05-.03.08-.04.18-.1.35-.2.51-.31.05-.03.1-.07.16-.1.11-.08.23-.15.33-.23.06-.04.12-.09.17-.13.1-.07.2-.15.29-.23.05-.04.11-.09.16-.13.1-.09.21-.18.3-.27.04-.03.08-.07.12-.1.13-.12.26-.25.38-.37.04-.05.09-.09.13-.14.08-.08.16-.17.23-.26.05-.06.1-.11.15-.17.07-.08.13-.16.19-.24.05-.06.09-.12.14-.18.06-.09.13-.17.19-.26.04-.05.08-.11.11-.16.09-.13.18-.26.26-.4,0,0,0,0,0,0,1.87-3.02,2.08-6.54,1.92-8.34ZM73.97,33.57c-.99.47-1.83.79-2.34.9-7.36,2.33-12.22-2.3-3.96-6.99,1.78-1.01,4.03-1.96,6.58-2.73,3.34-1,7.12-1.7,10.71-1.85-2.03,5.29-7.58,9.02-10.99,10.66ZM86.98,49.22c-.8.98-1.59,1.7-2.23,1.84-.1.02-.37.09-.71-.98-.72-2.22-.24-4.67,1.24-6.37.55-.62,1.2-1.1,1.92-1.4.89-.37,1.9-.47,2.95-.27.13.03.27,0,.4-.02-.22,1.77-1.86,5.11-3.57,7.2ZM65.16,71.97h-1.86s-.09-.04-.09-.09v-3.77c0-.07-.06-.12-.13-.12h-.56c-.07,0-.12.06-.12.12v4.47c0,.07.06.13.12.13h2.63c.07,0,.12-.06.12-.13v-.48c0-.07-.06-.12-.12-.12ZM58.63,71.97h-1.86s-.08-.04-.08-.08v-3.78c0-.07-.06-.12-.12-.12h-.56c-.07,0-.12.06-.12.12v4.47c0,.07.06.13.12.13h2.63c.07,0,.12-.06.12-.13v-.48c0-.07-.06-.12-.12-.12ZM51.77,67.99h-2.63c-.07,0-.12.06-.12.12v4.47c0,.07.06.13.12.13h2.63c.07,0,.13-.06.13-.13v-.48c0-.07-.06-.12-.13-.12h-1.86c-.05,0-.09-.04-.09-.09v-1.12c0-.05.04-.09.09-.09h1.66c.07,0,.13-.06.13-.12v-.46c0-.07-.06-.12-.13-.12h-1.66c-.05,0-.09-.04-.09-.09v-1.05c0-.05.04-.09.09-.09h1.86c.07,0,.13-.06.13-.12v-.48c0-.07-.06-.12-.13-.12ZM69.66,67.99h-.56c-.07,0-.12.06-.12.12v4.47c0,.07.06.13.12.13h.56c.07,0,.12-.06.12-.13v-4.47c0-.07-.06-.12-.12-.12ZM77.6,67.99h-.56c-.07,0-.12.06-.12.12v2.64c0,.08-.1.12-.15.06l-2.74-2.89s-.04-.02-.06-.02h-.04s-.05.04-.05.07v4.61c0,.07.06.13.12.13h.56c.07,0,.12-.06.12-.13v-2.68c0-.08.1-.12.15-.06l2.78,2.93s.04.02.06.02c.03,0,.05-.03.05-.07v-4.61c0-.07-.06-.12-.13-.12ZM70.23,66.47c-.03-.07-.12-.09-.18-.04l-.97.72s-.06.1-.04.15l.09.16c.03.06.1.08.16.05l1.08-.48c.06-.03.09-.1.06-.16l-.2-.4ZM42.33,67.95c-.43,0-.79.02-1.2.07-.06,0-.11.06-.11.12v4.41c0,.06.05.12.11.12.42.04.77.07,1.25.07,1.87,0,2.74-1.11,2.74-2.44s-.92-2.35-2.79-2.35ZM42.5,72.03c-.26,0-.42,0-.58-.03-.05,0-.09-.05-.09-.11v-3.1c0-.05.04-.1.1-.11.15-.02.32-.03.51-.03,1.2,0,1.83.66,1.83,1.64s-.55,1.73-1.76,1.73ZM36.92,67.99h-2.63c-.07,0-.12.06-.12.12v4.47c0,.07.06.13.12.13h2.63c.07,0,.12-.06.12-.13v-.48c0-.07-.06-.12-.12-.12h-1.86s-.09-.04-.09-.09v-1.13s.04-.09.09-.09h1.66c.07,0,.12-.06.12-.12v-.46c0-.07-.06-.12-.12-.12h-1.66s-.09-.04-.09-.09v-1.06s.04-.09.09-.09h1.86c.07,0,.12-.06.12-.12v-.48c0-.07-.06-.12-.12-.12ZM29.9,67.92h0s-.06.01-.08.04l-1.95,2.99s-.1.05-.13,0l-2-2.99s-.05-.04-.08-.04c-.04,0-.07.04-.08.08l-.19,4.58c0,.07.05.13.12.13h.54c.07,0,.12-.05.12-.12l.04-2.47c0-.08.1-.1.14-.04l1.34,2.02s.04.04.07.04h0s.05-.01.07-.04l1.33-2.01c.04-.06.14-.03.14.04l.06,2.46c0,.07.06.12.12.12h.54c.07,0,.13-.06.12-.13l-.19-4.58s-.03-.08-.08-.08ZM34.23,31.78c.55,0,1.15-.27,1.57-.61.08-.07.21,0,.21.1v.11c0,.17.14.3.3.3h.28c.17,0,.3-.14.3-.3v-4.35c0-.17-.14-.3-.3-.3h-.32c-.17,0-.3.14-.3.3v2.84c0,.26-.11.5-.31.66-.34.27-.75.47-1.16.47-.71,0-1.04-.39-1.04-1.16v-2.81c0-.17-.14-.3-.3-.3h-.32c-.17,0-.3.14-.3.3v3.06c0,.99.55,1.69,1.71,1.69ZM41.65,31.78c.4,0,.9-.09,1.4-.22.12-.03.2-.16.17-.28l-.06-.31c-.03-.14-.17-.22-.3-.18-.39.11-.78.19-1.12.19-1.19,0-1.68-.56-1.83-1.33-.02-.08.05-.16.14-.16h3.3c.11,0,.2-.08.2-.19,0-.09,0-.18,0-.28,0-1.35-.77-2.38-2.17-2.38-1.53,0-2.41,1.24-2.41,2.6,0,1.43.9,2.55,2.68,2.55ZM41.32,27.41c.81,0,1.25.52,1.35,1.21.01.08-.05.16-.14.16h-2.48c-.07,0-.13-.07-.12-.14.14-.77.62-1.23,1.38-1.23ZM16.72,31.78c.51,0,.96-.16,1.33-.44.08-.06.21,0,.21.1,0,.13.11.24.24.24h.32c.17,0,.3-.14.3-.3v-2.65c0-1.43-.67-2.1-2.09-2.1-.41,0-.91.08-1.33.19-.14.04-.22.17-.2.31l.04.23c.03.17.2.27.36.22.3-.09.65-.14,1-.14.91,0,1.3.39,1.3,1.23v.07c0,.11-.11.18-.21.14-.35-.14-.72-.24-1.29-.24-1.01,0-1.78.65-1.78,1.55,0,1.01.81,1.59,1.79,1.59ZM16.87,29.35c.46,0,.75.09,1.13.29.13.07.21.2.21.35v.28c0,.11-.04.21-.12.28-.29.29-.68.49-1.13.49-.73,0-1.14-.31-1.14-.85s.41-.84,1.05-.84ZM27.9,31.78c.51,0,.92-.12,1.26-.33.1-.06.22,0,.22.12v2.36c0,.17.14.3.3.3h.32c.17,0,.3-.14.3-.3v-6.9c0-.17-.14-.3-.3-.3h-.34c-.13,0-.24.11-.24.24h0c0,.08-.08.13-.14.08-.33-.24-.79-.42-1.36-.42-1.3,0-2.5,1.11-2.5,2.62s1.05,2.52,2.48,2.52ZM27.97,27.41c.38,0,.75.14,1.03.34.23.16.37.43.37.71v1.54c0,.28-.13.55-.37.71-.26.18-.58.28-.91.28-1.16,0-1.76-.73-1.76-1.77s.7-1.82,1.63-1.82ZM8.6,34.23h.32c.17,0,.3-.14.3-.3v-2.28c0-.1.11-.17.2-.13.37.17.79.26,1.24.26,1.47,0,2.51-1.16,2.51-2.61s-1.03-2.54-2.34-2.54c-.63,0-1.14.19-1.52.48-.06.04-.14,0-.14-.07,0-.17-.14-.31-.31-.31h-.27c-.17,0-.3.14-.3.3v6.9c0,.17.14.3.3.3ZM9.22,28.42c0-.31.17-.6.44-.75.25-.15.55-.23.89-.25.87-.04,1.61.62,1.7,1.49.13,1.2-.56,2.11-1.6,2.11-.35,0-.68-.08-.96-.21-.29-.14-.47-.45-.47-.77v-1.6ZM21.68,31.68h.32c.17,0,.3-.14.3-.3v-2.84c0-.19.08-.37.22-.49.31-.28.74-.44,1.22-.49.16-.02.29-.15.29-.31v-.4c0-.12-.1-.21-.22-.2-.48.05-.96.28-1.35.68-.07.08-.2.02-.2-.08v-.21c0-.17-.14-.3-.3-.3h-.28c-.17,0-.3.14-.3.3v4.35c0,.17.14.3.3.3Z"/>
</svg>