<?xml version="1.0" encoding="UTF-8"?>
<svg id="Capa_1" data-name="Capa 1" xmlns="http://www.w3.org/2000/svg" viewBox="0 0 147.8 77.63">
  <defs>
    <style>
      .cls-1 {
        fill: #221f1f;
      }
    </style>
  </defs>
  <g>
    <g>
      <path class="cls-1" d="M20.61,51.99h-4.58v11.66h1.34v-10.33h3.25c1.78,0,3.23,2.02,3.23,4.5s-1.44,4.51-3.23,4.51h-2.42v1.32h2.42c1.3,0,2.46-.59,3.29-1.65.82-1.06,1.27-2.54,1.27-4.18s-.45-3.13-1.28-4.18c-.83-1.06-2-1.65-3.3-1.65Z"/>
      <path class="cls-1" d="M20.63,63.78h-2.56v-1.59h2.56c1.7,0,3.09-1.96,3.09-4.37s-1.39-4.37-3.09-4.37h-3.11v10.33h-1.62v-11.94h4.72c1.34,0,2.54.6,3.41,1.7.84,1.08,1.31,2.6,1.31,4.27s-.46,3.19-1.3,4.26c-.86,1.1-2.06,1.7-3.4,1.7h0ZM18.35,63.51h2.28c1.25,0,2.38-.57,3.18-1.59.8-1.03,1.24-2.48,1.24-4.09s-.44-3.07-1.25-4.1c-.81-1.03-1.94-1.59-3.19-1.59h-4.44v11.38h1.06v-10.33h3.39c1.86,0,3.37,2.08,3.37,4.64s-1.51,4.65-3.37,4.65h-2.28v1.04h0Z"/>
    </g>
    <g>
      <polygon class="cls-1" points="35.44 53.3 35.44 51.99 28.98 51.99 28.98 63.65 35.44 63.65 35.44 62.33 30.32 62.33 30.32 58.01 34.54 58.01 34.54 56.69 30.32 56.69 30.32 53.3 35.44 53.3"/>
      <path class="cls-1" d="M35.57,63.78h-6.73v-11.94h6.73v1.59h-5.12v3.11h4.22v1.59h-4.22v4.05h5.12v1.59h0ZM29.12,63.51h6.18v-1.04h-5.12v-4.6h4.22v-1.04h-4.22v-3.67h5.12v-1.04h-6.18v11.38h0Z"/>
    </g>
    <g>
      <g>
        <rect class="cls-1" x="114.83" y="34.87" width="1.33" height="11.66"/>
        <path class="cls-1" d="M116.3,46.67h-1.61v-11.94h1.61v11.94h0ZM114.97,46.39h1.06v-11.38h-1.06v11.38h0Z"/>
      </g>
      <g>
        <path class="cls-1" d="M126.41,34.77c-3.06,0-5.56,2.66-5.56,5.93s2.49,5.93,5.56,5.93,5.55-2.66,5.55-5.93-2.49-5.93-5.55-5.93ZM126.41,45.2c-2.33,0-4.22-2.02-4.22-4.5s1.89-4.5,4.22-4.5,4.21,2.02,4.21,4.5-1.89,4.5-4.21,4.5Z"/>
        <path class="cls-1" d="M126.41,46.77c-3.14,0-5.7-2.72-5.7-6.07s2.55-6.07,5.7-6.07,5.69,2.72,5.69,6.07-2.55,6.07-5.69,6.07h0ZM126.41,34.91c-2.99,0-5.42,2.6-5.42,5.79s2.43,5.79,5.42,5.79,5.41-2.6,5.41-5.79-2.43-5.79-5.41-5.79h0ZM126.41,45.34c-2.4,0-4.36-2.08-4.36-4.64s1.96-4.64,4.36-4.64,4.35,2.08,4.35,4.64-1.95,4.64-4.35,4.64h0ZM126.41,36.34c-2.25,0-4.08,1.96-4.08,4.36s1.83,4.36,4.08,4.36,4.08-1.96,4.08-4.36-1.83-4.36-4.08-4.36h0Z"/>
      </g>
      <g>
        <polygon class="cls-1" points="28.46 34.87 28.46 46.53 34.91 46.53 34.91 45.21 29.8 45.21 29.8 34.87 28.46 34.87"/>
        <path class="cls-1" d="M35.05,46.67h-6.73v-11.94h1.61v10.34h5.12v1.59h0ZM28.6,46.39h6.17v-1.04h-5.12v-10.34h-1.06v11.38h0Z"/>
      </g>
      <g>
        <polygon class="cls-1" points="67.23 46.53 73.68 46.53 73.68 45.21 68.56 45.21 68.56 40.89 72.78 40.89 72.78 39.58 68.56 39.58 68.56 36.19 73.68 36.19 73.68 34.87 67.23 34.87 67.23 46.53"/>
        <path class="cls-1" d="M73.82,46.67h-6.73v-11.94h6.73v1.59h-5.12v3.11h4.22v1.59h-4.22v4.05h5.12v1.59h0ZM67.37,46.39h6.17v-1.04h-5.12v-4.6h4.22v-1.04h-4.22v-3.67h5.12v-1.04h-6.17v11.38h0Z"/>
      </g>
      <g>
        <polygon class="cls-1" points="59.05 42.74 53.01 34.29 53 46.53 54.34 46.53 54.34 38.46 60.38 47.11 60.38 34.87 59.05 34.87 59.05 42.74"/>
        <path class="cls-1" d="M60.52,47.55l-6.04-8.65v7.77h-1.61v-12.81l6.04,8.44v-7.57h1.61v12.82h0ZM54.2,38.02l6.04,8.65v-11.66h-1.06v8.16l-6.04-8.44v11.67h1.06v-8.37h0Z"/>
      </g>
      <g>
        <polygon class="cls-1" points="77.62 36.19 80.52 36.19 80.52 46.53 81.86 46.53 81.86 36.19 84.77 36.19 84.77 34.87 77.62 34.87 77.62 36.19"/>
        <path class="cls-1" d="M82,46.67h-1.62v-10.34h-2.91v-1.59h7.43v1.59h-2.91v10.34h0ZM80.66,46.39h1.06v-10.34h2.91v-1.04h-6.88v1.04h2.91v10.34h0Z"/>
      </g>
      <g>
        <polygon class="cls-1" points="38.59 46.53 40.04 46.53 43.37 38 44.93 41.99 42.65 41.99 42.19 43.31 45.45 43.31 46.7 46.53 48.15 46.53 43.37 34.29 38.59 46.53"/>
        <path class="cls-1" d="M48.35,46.67h-1.75l-1.25-3.22h-3.36l.56-1.6h2.17l-1.36-3.47-3.23,8.28h-1.75l4.98-12.76,4.98,12.76h0ZM46.79,46.39h1.15l-4.57-11.72-4.57,11.72h1.15l3.42-8.77,1.76,4.51h-2.38l-.37,1.04h3.16l1.25,3.22h0Z"/>
      </g>
      <g>
        <polygon class="cls-1" points="88.12 46.53 89.57 46.53 92.89 38 94.45 41.99 92.18 41.99 91.72 43.31 94.98 43.31 96.23 46.53 97.67 46.53 92.89 34.29 88.12 46.53"/>
        <path class="cls-1" d="M97.87,46.67h-1.74l-1.25-3.22h-3.36l.56-1.6h2.17l-1.36-3.47-3.23,8.28h-1.75l4.98-12.76,4.98,12.76h0ZM96.32,46.39h1.15l-4.57-11.72-4.57,11.72h1.15l3.42-8.77,1.76,4.51h-2.38l-.36,1.04h3.15l1.25,3.22h0Z"/>
      </g>
      <g>
        <path class="cls-1" d="M20,34.87h-4.03v11.66h1.34v-10.35h2.7c.49,0,1.03.26,1.45.68.44.45.69,1.02.69,1.6,0,1.26-.96,2.28-2.14,2.28h-1.87v1.31h1.87c1.85,0,3.36-1.61,3.36-3.59,0-.95-.38-1.85-1.06-2.55-.65-.66-1.49-1.04-2.3-1.04Z"/>
        <path class="cls-1" d="M17.44,46.67h-1.61v-11.94h4.17c.85,0,1.72.39,2.4,1.08.71.73,1.1,1.67,1.1,2.65,0,2.06-1.57,3.73-3.5,3.73h-2v-1.59h2c1.1,0,2-.96,2-2.14,0-.55-.23-1.08-.65-1.51-.39-.4-.9-.64-1.35-.64h-2.56v10.35h0ZM16.1,46.39h1.06v-10.35h2.84c.53,0,1.11.27,1.55.72.47.48.73,1.08.73,1.7,0,1.33-1.02,2.42-2.28,2.42h-1.73v1.04h1.73c1.78,0,3.22-1.55,3.22-3.45,0-.91-.36-1.78-1.02-2.45-.62-.64-1.43-1-2.2-1h-3.9v11.38h0Z"/>
      </g>
      <g>
        <path class="cls-1" d="M106.85,41.53c.41,0,2.41-.99,2.41-3.28,0-1.86-1.42-3.38-3.17-3.38h-3.39v11.66h1.33v-10.34h2.05c1.07,0,1.93.93,1.93,2.06s-.87,2.06-1.93,2.06h-1.81l5.09,6.22h1.58l-4.1-5Z"/>
        <path class="cls-1" d="M111.24,46.67l-1.98-.05-5.09-6.22v6.27h-1.61v-11.94h3.53c1.82,0,3.3,1.58,3.3,3.52,0,2.07-1.55,3.14-2.29,3.37l4.14,5.05h0ZM109.43,46.39h1.22l-4.1-5h.29c.32,0,2.27-.91,2.27-3.14,0-1.79-1.36-3.24-3.03-3.24h-3.25v11.38h1.06v-10.34h2.19c1.14,0,2.07.99,2.07,2.2s-.93,2.2-2.07,2.2h-1.52l4.87,5.94h0ZM104.17,40.17h1.92c.99,0,1.79-.86,1.79-1.92s-.81-1.92-1.79-1.92h-1.92v3.84h0Z"/>
      </g>
    </g>
    <g>
      <g>
        <polygon class="cls-1" points="49.31 60.16 45.62 51.01 42.75 63.25 44.13 63.25 45.96 55.37 49.31 63.67 52.67 55.37 54.5 63.25 55.88 63.25 53 51.01 49.31 60.16"/>
        <path class="cls-1" d="M49.31,64.04l-3.32-8.21-1.75,7.56h-1.67l3.01-12.84,3.73,9.23,3.73-9.23,3.01,12.84h-1.67l-1.75-7.56-3.32,8.21h0ZM45.92,54.91l3.39,8.39,3.4-8.39,1.9,8.2h1.1l-2.73-11.64-3.66,9.06-3.66-9.06-2.73,11.64h1.1l1.9-8.2h0Z"/>
      </g>
      <g>
        <polygon class="cls-1" points="96.64 51.59 96.64 63.25 103.09 63.25 103.09 61.93 97.97 61.93 97.97 51.59 96.64 51.59"/>
        <path class="cls-1" d="M103.23,63.39h-6.73v-11.94h1.61v10.34h5.12v1.6h0ZM96.77,63.11h6.17v-1.04h-5.12v-10.34h-1.06v11.38h0Z"/>
      </g>
      <g>
        <polygon class="cls-1" points="106.91 51.59 106.91 63.25 113.36 63.25 113.36 61.93 108.24 61.93 108.24 51.59 106.91 51.59"/>
        <path class="cls-1" d="M113.5,63.39h-6.73v-11.94h1.62v10.34h5.11v1.6h0ZM107.04,63.11h6.18v-1.04h-5.11v-10.34h-1.06v11.38h0Z"/>
      </g>
      <g>
        <polygon class="cls-1" points="66.21 52.9 66.21 51.59 59.76 51.59 59.76 63.25 66.21 63.25 66.21 61.93 61.09 61.93 61.09 57.61 65.31 57.61 65.31 56.29 61.09 56.29 61.09 52.9 66.21 52.9"/>
        <path class="cls-1" d="M66.35,63.39h-6.73v-11.94h6.73v1.59h-5.11v3.11h4.22v1.59h-4.22v4.05h5.11v1.6h0ZM59.9,63.11h6.17v-1.04h-5.11v-4.6h4.22v-1.04h-4.22v-3.67h5.11v-1.04h-6.17v11.38h0Z"/>
      </g>
      <g>
        <polygon class="cls-1" points="84.82 63.25 91.27 63.25 91.27 61.93 86.15 61.93 86.15 57.61 90.37 57.61 90.37 56.29 86.15 56.29 86.15 52.9 91.27 52.9 91.27 51.59 84.82 51.59 84.82 63.25"/>
        <path class="cls-1" d="M91.41,63.39h-6.73v-11.94h6.73v1.59h-5.11v3.11h4.22v1.59h-4.22v4.05h5.11v1.6h0ZM84.95,63.11h6.17v-1.04h-5.11v-4.6h4.22v-1.04h-4.22v-3.67h5.11v-1.04h-6.17v11.38h0Z"/>
      </g>
      <g>
        <polygon class="cls-1" points="131.9 51.59 130.56 51.59 130.56 59.45 124.53 51.01 124.52 63.25 125.86 63.25 125.86 55.18 131.9 63.65 131.9 51.59"/>
        <path class="cls-1" d="M132.04,64.09l-6.04-8.48v7.77h-1.61v-12.81s6.04,8.44,6.04,8.44v-7.57h1.61v12.64h0ZM125.72,54.75l6.04,8.48v-11.5h-1.06v8.16l-6.04-8.44v11.67s1.05,0,1.05,0v-8.36h0Z"/>
      </g>
      <g>
        <path class="cls-1" d="M75.68,51.59h-4.58v11.66h1.34v-10.33h3.25c1.78,0,3.23,2.02,3.23,4.5s-1.45,4.51-3.23,4.51h-2.42v1.32h2.42c1.29,0,2.46-.59,3.29-1.65.82-1.06,1.27-2.54,1.27-4.18s-.45-3.13-1.28-4.18c-.83-1.06-2-1.65-3.3-1.65Z"/>
        <path class="cls-1" d="M75.69,63.39h-2.56v-1.6h2.56c1.7,0,3.09-1.96,3.09-4.37s-1.39-4.36-3.09-4.36h-3.11v10.33h-1.61v-11.94h4.71c1.34,0,2.55.6,3.41,1.7.84,1.08,1.31,2.59,1.31,4.27s-.46,3.19-1.3,4.27c-.86,1.1-2.07,1.7-3.4,1.7h0ZM73.42,63.11h2.28c1.25,0,2.38-.57,3.18-1.6.8-1.03,1.25-2.49,1.25-4.1s-.45-3.07-1.25-4.1c-.8-1.03-1.93-1.6-3.19-1.6h-4.44v11.38h1.06v-10.33h3.39c1.86,0,3.37,2.08,3.37,4.64s-1.51,4.65-3.37,4.65h-2.28v1.04h0Z"/>
      </g>
      <g>
        <rect class="cls-1" x="117.69" y="51.59" width="1.34" height="11.66"/>
        <path class="cls-1" d="M119.16,63.39h-1.61v-11.94h1.61v11.94h0ZM117.83,63.11h1.06v-11.38h-1.06v11.38h0Z"/>
      </g>
      <g>
        <polygon class="cls-1" points="117.77 50.49 119.02 50.49 120.27 48.59 118.74 48.59 117.77 50.49"/>
        <path class="cls-1" d="M119.1,50.63h-1.55l1.11-2.18h1.87l-1.43,2.18h0ZM118,50.35h.95l1.07-1.63h-1.19l-.83,1.63h0Z"/>
      </g>
    </g>
  </g>
  <g>
    <g>
      <path class="cls-1" d="M66.73,21.18s.1.05.15.07c.03.01.07.03.1.05.06.05.11.11.15.18.03.05.04.1.06.16.04,0,.07.02.11.03.05-.02.09-.05.14-.06,0-.03.02-.06.05-.08.2-.13.33-.29.47-.42.09-.32.05-.76-.1-1-.05-.05-.1-.1-.13-.16-.03-.02-.05-.05-.07-.08-.12-.04-.24-.1-.37-.14-.05,0-.11.02-.16.03-.06.12-.17.21-.3.26,0,0-.02,0-.02,0-.07.1-.13.21-.17.33-.03.2-.02.38.01.57.03.09.05.18.09.27Z"/>
      <path class="cls-1" d="M79.99,25.02c.02-.06,0-.12,0-.18,0-.03,0-.05,0-.08-.02-.07-.04-.14-.07-.2-.06,0-.11-.01-.16-.03-.05,0-.1,0-.14,0-.15,0-.29.03-.44.06-.06.04-.07.11-.13.18-.17.2-.45.17-.67.23,0,0,0,0-.01.01-.17.14-.21.34-.26.54,0,.08-.03.15-.07.21-.03.07-.07.13-.12.19-.21.22-.48.3-.78.27,0,0,0,0,0,0h0c-.12,0-.24,0-.35.05-.09.05-.14.15-.23.18-.07.03-.15.05-.23.05-.05.05-.1.1-.16.13-.17.09-.35.13-.53.2-.03,0-.05,0-.07,0-.04.01-.07.03-.11.04-.3.09-.7.07-1.01,0-.07,0-.14,0-.21.02-.13.02-.24.08-.36.13-.14.05-.26.05-.4.02-.87-.16-1.72-.24-2.51-.7-.38-.22-.72-.5-1.02-.82-.29-.3-.57-.83-.9-1.06-.19-.13-.25-.3-.24-.52,0-.4.14-1.07-.46-1.06h0s-.08-.02-.1-.06c-.08-.1-.14-.22-.2-.33-.01-.01-.03-.03-.04-.05-.02-.04-.03-.07-.05-.11-.18-.14-.38-.28-.59-.37-.02.01-.05.02-.07.02-.05.04-.1.09-.13.15-.03.04-.05.08-.07.12.06.14.11.29.11.44,0,.14-.03.28-.07.41,0,0,0,.01.01.02.04.09.05.18.06.27.03.24.16.4.33.57.11.11.2.23.3.35.06.07.11.15.16.23.18.28.34.58.61.78.16.12.42.53.62.48,0,.16.14.3.24.4.11.12.22.27.35.37.11.08.23.12.36.15,0,0,.01.08.02.09,0,.03.02.05.04.07.05.04.12.03.18.05.05.01.09.03.13.06.09.05.15.13.23.2.15.13.33.15.49.26.14.09.19.26.33.35.16.09.37.08.55.14.1.03.19.07.28.11.1.04.2.09.32.1.12.01.24,0,.36-.02.09-.01.19-.02.28-.02.09,0,.2,0,.28.03.05.02.1.05.15.08.44,0,.85-.01,1.27-.21.03-.01.05-.01.07-.01.05-.02.09-.04.14-.05.16-.07.32-.14.5-.16.18-.03.35-.02.53-.02.17-.08.34-.12.59-.17.02,0,.05-.01.07-.02.15-.11.28-.23.39-.36.04-.05.1-.06.14-.04.22-.2.52-.32.83-.38.02-.02.04-.05.06-.07.1-.13.13-.29.22-.42.04-.06.14-.04.19-.11.24-.32.25-.58.62-.79.15-.09.29-.18.44-.27.05-.03.1-.05.11-.11Z"/>
      <path class="cls-1" d="M67.32,19.42s.04,0,.06,0c.18-.08.35-.16.48-.29,0,0,0-.02,0-.03,0-.03,0-.06,0-.09,0-.09.03-.18.06-.27.03-.14.06-.28.11-.42,0-.02,0-.04,0-.06.08-.36.28-.96.58-1.2.21-.17.36-.37.54-.56.02-.03.06-.05.09-.06.04-.08.09-.14.16-.21.13-.14.31-.27.48-.35.05-.02.08-.04.09-.1,0-.06.01-.1.06-.14.06-.05.14-.06.22-.09.14-.04.26-.11.39-.18.1-.06.22-.1.33-.15.08-.04.13-.1.2-.16.07-.06.15-.07.24-.08.13-.03.2-.13.31-.18.08-.04.16-.06.25-.07.04,0,.07,0,.11,0,.12-.04.25-.09.37-.12.36-.18.72-.33,1.18-.29.35.03.65.12.94.25.02,0,.05.02.07.03.08.04.16.09.23.14.12.07.23.15.35.24,0,0,0,0,.02,0,.14.05.29.05.43.07.14.02.3.06.42.13.08.05.14.11.21.17.08.06.16.09.25.12.12.04.23.08.34.12.12.05.23.11.35.17.14.06.29.09.43.12.15.04.27.1.4.17.08.04.16.09.24.15.1.08.17.17.24.27.05.06.1.11.18.13.07.02.14.02.21.04.38.14.4.47.46.79.02.12.07.23.15.32.05.07.1.13.15.2.04,0,.09.01.12.06.17.26.44.32.73.33.15-.1.28-.23.38-.38,0-.01,0-.02,0-.03-.11-.29-.24-.61-.45-.84-.2-.21-.44-.38-.63-.6-.28-.33-.48-.79-.88-1-.26-.14-.52-.2-.76-.39-.21-.17-.4-.37-.64-.49-.39-.19-.8-.32-1.17-.52-.27-.14-.46-.25-.76-.3-.1-.02-.2-.04-.3-.06-.41-.09-.8-.21-1.25-.2-.14,0-.28,0-.42,0-.25.01-.5.02-.74.01-.11,0-.22,0-.33.02-.08.01-.21.03-.28.07-.09.06-.16.14-.25.2-.09.06-.19.09-.29.12-.11.03-.2.07-.28.16-.05.05-.1.09-.17.12-.06.03-.13.04-.19.07-.03.02-.06.07-.09.09-.03.03-.07.05-.11.06-.08.03-.18.04-.26.08-.21.1-.42.17-.65.23-.17.05-.33.13-.49.21-.35.18-.66.42-.97.66-.15.12-.29.24-.43.37-.06.06-.12.12-.18.19-.06.07-.14.13-.18.21-.08.17-.11.37-.17.55-.05.16-.14.29-.24.42-.05.07-.09.13-.13.2-.03.07-.08.13-.1.2-.02.08-.02.17-.02.26,0,.23.03.51,0,.74-.01.07-.04.14-.07.21,0,.15.03.28.14.38.04,0,.09.02.13.04Z"/>
      <path class="cls-1" d="M81.39,19.09c-.03-.06-.06-.1-.1-.12-.02,0-.03-.01-.05-.02-.03,0-.07-.01-.11-.02-.03,0-.05-.02-.07-.04-.16-.04-.33-.05-.48-.02.07.11.07.28.03.4-.06.17-.19.3-.31.44,0,.05,0,.1-.01.16-.01.05-.03.1-.05.15.19.32.12.66-.04,1.05.02,0,.03,0,.04.02,0,0,0,0,0,0q.07-.03,0,0s0,.34,0,.41c0,.14,0,.28,0,.41,0,.38-.02.48-.16.8-.03.06-.06.12-.09.19.05.04.07.12,0,.18-.05.05-.12.13-.18.21.02.04.02.09-.02.14-.06.07-.13.18-.17.29.01.16.04.31.13.44.12,0,.23,0,.35-.03.12-.05.23-.11.34-.17.07-.16.13-.32.2-.48.03-.07.05-.13.08-.2.03-.07.05-.09.11-.13.11-.06.12-.15.16-.25.02-.05.03-.1.07-.14,0,0,.03-.03.07-.05-.03-.03-.04-.08-.02-.14.09-.21.13-.44.15-.66,0-.03-.01-.07-.02-.1-.38-.75.14-1.65.25-2.49-.03-.08-.06-.16-.09-.24Z"/>
      <path class="cls-1" d="M87.96,19.35s.09-.12.16-.14c.1-.03.2.03.29-.03.05-.04.07-.11.12-.16.04-.05.1-.07.15-.08.2-.07.24-.25.35-.41.06-.08.09-.16.11-.25.04-.18.16-.34.22-.51.08-.23-.03-.4-.16-.59-.15-.2-.33-.38-.46-.59-.09-.15-.13-.22-.32-.2-.17.01-.35,0-.51-.05-.16-.05-.31-.12-.48-.13-.1,0-.22,0-.33.02-.04.01-.08.02-.12.03-.12.04-.23.12-.29.23-.03.05-.03.12-.06.17-.03.05-.07.07-.11.11-.04.04-.07.07-.1.11-.3.35-.51.73-.48,1.21,0,.12.03.24.08.36.1.23.29.42.48.58.2.17.42.29.68.35.17.04.36.06.53.06.1,0,.18,0,.26-.07Z"/>
      <path class="cls-1" d="M36.98,21.44c.05-.18.11-.35.15-.53.04-.21.06-.46.03-.69-.01-.03-.03-.05-.04-.08-.19-.18-.31-.42-.48-.61-.21-.23-.43-.39-.76-.41-.04-.02-.08-.05-.12-.07-.22-.12-.45-.19-.71-.14-.72.15-1.58.8-1.74,1.54-.02.08,0,.19,0,.27,0,.09,0,.18.01.27.03.3.13.58.34.81.11.12.24.22.37.31.14.09.32.16.45.26.15.11.32.18.5.17.18,0,.35-.05.53-.07.2-.02.4,0,.6-.05.18-.05.37-.21.48-.36.05-.07.09-.15.14-.22.07-.12.14-.25.25-.36,0-.02.02-.03.02-.05Z"/>
      <path class="cls-1" d="M66.07,20.31c-.07.02-.13.06-.21.06-.05,0-.09,0-.13,0-.07,0-.15.01-.22.01h-.02s0-.03,0-.04c-1.33.02-2.6,0-3.83-.03-.04,0-.08,0-.12,0-.27.03-.53.05-.8.05-.64.09-1.25.12-1.96.05-.95-.09-1.91-.1-2.87-.14-.03,0-.05,0-.07-.01-1.06.04-2.13.12-3.23.26-.05-.03-.1-.06-.15-.08-.42-.03-.82-.13-1.25-.1-.53.03-1.07.05-1.59.16-.04.01-.09.01-.12,0-.2.02-.38.04-.54.05-.72.01-1.45.02-2.2.02-.16.03-.32.06-.48.07-.02,0-.04.02-.06.03-.06.02-.12.04-.19.05-.06.05-.14.09-.22.09-.01,0-.02,0-.04,0,.35.03.74.11.89.42.01,0,.02.02.04.02.16.05.37,0,.52-.05.5-.15.99-.21,1.52-.18.25.01.52-.01.77.04.23.05.43.2.66.26.26,0,.52,0,.77-.05.35-.07.69-.19,1.05-.2h0c.22-.11.6,0,.81.01-.01.32.59.27.52-.03.98-.1,1.98-.03,2.97-.03.55,0,1.11-.01,1.66.01.51.02,1.04.06,1.51-.15.39-.17,1.08-.06,1.49-.03,1.16.09,2.36.06,3.54-.05.02,0,.04,0,.05,0,.04,0,.07,0,.11-.01.04,0,.08,0,.13,0h.01c.12-.03.23-.02.35.01.08.02.16.02.24,0,.04,0,.08,0,.12,0,.03,0,.06-.02.09-.02.1,0,.2-.05.3-.04.07.01.14.03.21.04-.01-.16-.01-.32,0-.49-.01,0-.03,0-.04.01Z"/>
      <path class="cls-1" d="M43.27,21.05c.48.01.96,0,1.44,0,.18-.13.39-.2.61-.22-.09-.02-.17-.05-.23-.11-.17-.05-.35-.1-.52-.13-2.32-.01-4.68-.05-6.88-.03,0,.14-.02.29-.05.45,0,.01,0,.03,0,.04.07,0,.14-.01.22-.01.35-.01.69-.01,1.04,0,.35,0,.7.02,1.05.05.3.02.6.05.89.09.25.03.61.15.85.04.12-.05.22-.1.34-.12.42-.07.84-.04,1.26-.03Z"/>
      <path class="cls-1" d="M32.78,20.74v-.06s0-.04,0-.07c-.08,0-.16,0-.24,0-.12,0-.25,0-.37.04-.04.01-.11.04-.1.1.01.06.09.1.14.13.18.1.39.16.6.19,0-.01,0-.02,0-.04-.01-.1-.02-.21-.02-.31Z"/>
      <path class="cls-1" d="M30.81,20.51c-.07-.02-.14-.02-.21-.02-.2.01-.39.09-.59.12-.42.06-.79-.29-1.21-.2-.17.04-.3.08-.48.06-.34-.03-.69.03-1.04,0-.16-.02-.45-.05-.56.12-.06.1-.75.13-.75.16,0,0-.29.25.16.3.45.04.57.12.7.15.31.08.51-.02.83,0,.14,0,.28.07.42.08.16,0,.31-.01.45-.06.2-.06.41-.14.62-.17.27-.03.52.11.78.16.38.08,1.06-.16,1.08-.16.2.07.02-.37-.04-.46-.04-.06-.11-.06-.17-.08Z"/>
      <path class="cls-1" d="M125.99,20.62c-.09,0-.19,0-.28,0-.44.02-.88,0-1.32-.01-.28,0-.56,0-.84,0-.98,0-1.96,0-2.93,0-1.2,0-2.4-.01-3.59-.03-.88-.02-1.76,0-2.64,0-.3,0-.6-.03-.9.01-.23.03-.42.07-.62-.07-.13-.09-.26-.12-.39-.13-.08.03-.18.07-.26.12,0,.06-.01.12-.09.14-.04.01-.09.03-.14.04-.03.04-.05.08-.06.12.05.18.16.35.29.5.03.01.06.02.09.04.88.13,1.76.35,2.64.19.34-.06.67-.16,1.01-.21.17-.02.35-.02.52-.01.31.01.55.09.84-.09.19-.12.42-.23.66-.15.21.08.31.23.56.25.83.05,1.68.02,2.51.02,1.49,0,2.98,0,4.47,0,.14,0,.28,0,.42,0-.01-.1-.02-.19-.02-.29v-.05s0-.05,0-.05c.02-.11.04-.23.08-.34Z"/>
      <path class="cls-1" d="M110.9,20.74c-.12-.04-.23-.09-.33-.16-.13-.04-.25-.09-.37-.14-.04-.02-.06-.05-.07-.09-.09-.04-.19-.07-.3-.06-.33.03-.62.2-.94.24-.25-.16-.51-.21-.81-.22-.51-.02-1.01.03-1.52.05-.63.02-1.27,0-1.9-.02-.62-.02-1.25-.12-1.87.02-.28.06-.56.17-.85.2-.61.06-1.16-.31-1.76-.23-.31.04-.62.26-.94.2-.22-.04-.37-.18-.6-.12-.29.08-.53.14-.81.1-.05,0-.1-.02-.16-.04-.33-.09-.62-.15-.96-.14-.37,0-.74.03-1.12.03-.35,0-1.02.06-1.29-.06-.76-.32-1.02.08-1.76.06-.02.02-.03.03-.05.05-.02.1-.07.18-.18.19-.04.04-.09.07-.14.1,0,0,0,0,0,0-.06.55.97.33,1.49.3.75-.03,1.5.01,2.25.01.46,0,.92,0,1.38-.05.43-.06.86-.14,1.29-.01.34.1.62.22.98.16.15-.02.3-.06.45-.04.25.03.4.17.67.11.35-.08.64-.17,1.01-.11.44.08.86.21,1.31.23.72.04,1.44-.04,2.16-.08.72-.04,1.43-.03,2.15,0,.3.02.61.03.91.04.14,0,.29,0,.43.01.24,0,.39.02.62-.06.05-.02.43-.12.63-.15.1-.02.2-.04.3-.05.22-.06.45-.12.68-.15.06-.05.09-.1.05-.16Z"/>
      <path class="cls-1" d="M136.24,20.93c-.04-.09-.19-.2-.3-.16-.57.21-1.07-.32-1.77-.11-.15.04-.29.07-.43.08-.03-.02-.05-.05-.08-.06-.04,0-.1,0-.13,0-.09,0-.17-.02-.26-.02-.09,0-.17,0-.26,0-.1,0-.19-.03-.29-.05-.05,0-.08,0-.13-.01-.22-.06-.46-.04-.69-.03-.09,0-.17,0-.25-.03-.07-.02-.12-.05-.19-.06-.13-.02-.27,0-.4,0-.12,0-.25.04-.37.04-.02,0-.04,0-.06,0,.01,0,.02-.02.03-.03-.03.01-.07.02-.1.03-.06,0-.12,0-.17.02-.01,0-.03.02-.04.02-.18.03-.37.02-.56.01.09.27.14.52.17.76h.14s.03,0,.04.01c0,.03.02.06.03.09.06.01.11.03.17.02.03,0,.07,0,.1,0,.05,0,.08-.02.12-.02.11-.02.23.03.33-.02.21-.1.46-.21.7-.16.08.01.16.02.23.04.06.01.1.03.16.05.12.04.23.09.35.09.05,0,.1,0,.14,0,.03,0,.04.02.07.02.06,0,.11.01.16.02.02,0,.04.01.07.02.05,0,.1.01.15.02.07.01.15.02.22.04.07.03.14.06.22.06.06,0,.11.02.17.02.06,0,.12,0,.17,0,.04,0,.09,0,.13,0,.05,0,.05-.01.06-.04.09-.04.18-.08.26-.11.44-.17.87-.26,1.31-.03.16.08.51.17.67.06.14-.1.19-.46.13-.6Z"/>
      <path class="cls-1" d="M79.8,20.27l-.11-.18c-.06,0-.13.02-.19.02-.22-.07-.43-.16-.53-.16-.51.02-1.03.2-1.53.27-.33.05-.66.14-.99.15-.13,0-.26,0-.39-.04-.07-.03-.13-.09-.19-.14-.08-.05-.15-.06-.23-.06-.23,0-.47-.02-.71-.01-.02,0-.05,0-.07,0,0,0,0,0-.01-.01-.17-.13-.41-.19-.61-.24-.34-.09-.61.06-.88.25-.05.03-.09.07-.12.11-.03.01-.05.02-.07.03-.04.01-.08.03-.12.04-.12.03-.25.06-.37.1-.08.03-.15.06-.23.08-.08.02-.16.03-.25.03-.12,0-.23,0-.34-.03-.22-.05-.43-.15-.65-.2-.21-.05-.42-.04-.63.02-.2.06-.39.16-.59.19-.21.03-.42-.02-.62-.09-.1-.04-.21-.06-.32-.08-.1,0-.2,0-.3,0-.09,0-.17,0-.26,0,.03.17.04.35.03.52.08,0,.15-.01.23,0,.09.01.16.06.23.1.56-.04,1.12-.06,1.68-.07.13-.03.27-.04.4-.04.09,0,.17.02.26.04.27,0,.54,0,.81.01.12-.02.25-.04.37-.05.17-.02.33-.02.5-.01.1,0,.17.02.22.11.04.07.05.14.14.15.23.03.41.24.64.26.23.03.39-.17.59-.24.09-.03.21-.05.29-.12.09-.08.03-.13.18-.11.12.01.25.02.37.02.71,0,1.44-.27,2.14-.04.2.06.38.17.59.22.09,0,.18-.03.27-.05.01-.03.04-.07.08-.08.02,0,.04-.01.05-.02,0,0,.01-.01.02-.02.02,0,.04,0,.06,0,.17-.02.34-.04.51-.02.1,0,.2.03.3.06l-.02-.03.36-.17c.09-.26.07-.37.02-.46Z"/>
      <path class="cls-1" d="M90.16,20.23c-.85-.14-1.7-.11-2.55-.05-1.28.1-2.59.24-3.87.1-.4-.04-.82-.13-1.2-.28-.11,0-.21,0-.32,0-.12,0-.24,0-.36,0-.02.09-.05.17-.07.26-.06.2-.11.4-.15.59.01,0,.03,0,.04,0,.02-.02.04-.04.06-.06,0,0,.02,0,.02-.01.34-.22.85-.05,1.3.06.25,0,.5,0,.75,0,.44,0,.88-.06,1.32-.06.42,0,.76.14,1.15.2.4.07.79-.1,1.18-.15.47-.06.95,0,1.42.05.21,0,2.71.04,2.71-.23,0-.22-1.29-.4-1.45-.43Z"/>
      <path class="cls-1" d="M128.98,20.19c-.05-.02-.1-.05-.15-.08-.33-.21-.72-.4-1.11-.42-.21,0-.4.04-.58.1-.02,0-.03.02-.05.03-.02.01-.05.04-.07.05-.33.32-.53.71-.6,1.15,0,.16.03.33.06.49.03.08.07.14.09.18.18.28.48.56.79.7.25.11.54.13.81.14.25.01.57.06.8-.04.4-.17.4-.59.5-.94-.02-.32-.08-.63-.21-.97-.06-.17-.16-.29-.29-.39Z"/>
      <path class="cls-1" d="M51.78,19.32c.21.12.74.37.98.31.89-.23,1.65-.84,1.67-1.82,0-.28-.09-.63-.18-.89-.07-.19-.11-.2-.25-.3.01,0-.32-.23-.23-.22-.16-.01-.26-.06-.34-.12-.08-.06-.16-.13-.29-.19-.3-.12-.57.11-.83.21-.25.09-.61.04-.8.26-.46.53-.72,1.37-.4,2.05.14.31.39.56.68.72Z"/>
    </g>
    <path class="cls-1" d="M24.36,21.19c.19-.06.25-.18.47-.19.06-.14.06-.3,0-.44-1.22-.16-2.55-.02-3.78-.02-.58,0-1.04.11-1.57.16-.3.03-.61,0-.91,0-.1,0-.19.18-.26.17-.13-.02-.37-.17-.47-.16-.08,0-.15-.19-.26-.19-.21,0-.14.32-.32.32-.3,0-.53-.14-.84-.15-.47,0-1,.47-1.47.52-.55.05-1.07-.32-1.66-.34-.58-.02-1.17.02-1.76-.01.33.62.26,1.01,1.12,1,.6-.01,1.17-.16,1.8-.16,1.23,0,2.54.12,3.76-.03.49-.06.86-.37,1.36-.46.77-.14,1.15.28,1.83.46.52.14,1.19.04,1.73.04.25,0,.69.09.91,0,.28-.11.49-.51.82-.67"/>
  </g>
</svg>